<?xml version="1.0" standalone="no"?>
<!DOCTYPE svg PUBLIC "-//W3C//DTD SVG 1.1//EN"
"http://www.w3.org/Graphics/SVG/1.1/DTD/svg11.dtd">

<svg width="310" height="154" view_box="0 0 310 154"
xmlns="http://www.w3.org/2000/svg"
xmlns:link="http://www.w3.org/1999/xlink">\n\n<desc>Généré par Mocodo 2.3.7 le Thu, 26 Aug 2021 00:21:56</desc>

<rect id="frame" x="0" y="0" width="310" height="154" fill="#ffffbf" stroke="none" stroke-width="0"/>

<!-- Association HAVE -->
<line x1="49" y1="77" x2="145" y2="77" stroke="#f46d43" stroke-width="2"/>
<text x="94" y="94.0" fill="#4575b4" font-family="Verdana" font-size="12">1,1</text>
<line x1="251" y1="77" x2="145" y2="77" stroke="#f46d43" stroke-width="2"/>
<text x="174" y="94.0" fill="#4575b4" font-family="Verdana" font-size="12">0,N</text>
<g id="association-HAVE">
	<path d="M 155 52 a 14 14 90 0 1 14 14 V 77 h -48 V 66 a 14 14 90 0 1 14 -14" fill="#fdae61" stroke="#fdae61" stroke-width="0"/>
	<path d="M 169 77.0 v 11 a 14 14 90 0 1 -14 14 H 135 a 14 14 90 0 1 -14 -14 V 77.0 H 48" fill="#fee090" stroke="#fee090" stroke-width="0"/>
	<rect x="121" y="52" width="48" height="50" fill="none" rx="14" stroke="#f46d43" stroke-width="2"/>
	<line x1="121" y1="77" x2="169" y2="77" stroke="#f46d43" stroke-width="1"/>
	<text x="128" y="69.7" fill="#000000" font-family="Verdana" font-size="12">HAVE</text>
</g>

<!-- Entity TASKS -->
<g id="entity-TASKS">
	<g id="frame-TASKS">
		<rect x="9" y="9" width="80" height="25" fill="#abd9e9" stroke="#abd9e9" stroke-width="0"/>
		<rect x="9" y="34.0" width="80" height="111" fill="#e0f3f8" stroke="#e0f3f8" stroke-width="0"/>
		<rect x="9" y="9" width="80" height="136" fill="none" stroke="#74add1" stroke-width="2"/>
		<line x1="9" y1="34" x2="89" y2="34" stroke="#74add1" stroke-width="1"/>
	</g>
	<text x="28" y="26.7" fill="#000000" font-family="Verdana" font-size="12">TASKS</text>
	<text x="14" y="51.7" fill="#000000" font-family="Verdana" font-size="12">task_code</text>
	<line x1="14" y1="54" x2="76" y2="54" stroke="#000000" stroke-width="1"/>
	<text x="14" y="68.7" fill="#000000" font-family="Verdana" font-size="12">title</text>
	<text x="14" y="85.8" fill="#000000" font-family="Verdana" font-size="12">completion</text>
	<text x="14" y="102.8" fill="#000000" font-family="Verdana" font-size="12">status</text>
	<text x="14" y="119.8" fill="#000000" font-family="Verdana" font-size="12">created_at</text>
	<text x="14" y="136.8" fill="#000000" font-family="Verdana" font-size="12">updated_at</text>
</g>

<!-- Entity CATEGORIES -->
<g id="entity-CATEGORIES">
	<g id="frame-CATEGORIES">
		<rect x="201" y="18" width="100" height="25" fill="#abd9e9" stroke="#abd9e9" stroke-width="0"/>
		<rect x="201" y="43.0" width="100" height="93" fill="#e0f3f8" stroke="#e0f3f8" stroke-width="0"/>
		<rect x="201" y="18" width="100" height="118" fill="none" stroke="#74add1" stroke-width="2"/>
		<line x1="201" y1="43" x2="301" y2="43" stroke="#74add1" stroke-width="1"/>
	</g>
	<text x="210" y="35.7" fill="#000000" font-family="Verdana" font-size="12">CATEGORIES</text>
	<text x="206" y="60.7" fill="#000000" font-family="Verdana" font-size="12">category_code</text>
	<line x1="206" y1="63" x2="295" y2="63" stroke="#000000" stroke-width="1"/>
	<text x="206" y="77.8" fill="#000000" font-family="Verdana" font-size="12">name</text>
	<text x="206" y="94.8" fill="#000000" font-family="Verdana" font-size="12">status</text>
	<text x="206" y="111.8" fill="#000000" font-family="Verdana" font-size="12">created_at</text>
	<text x="206" y="128.8" fill="#000000" font-family="Verdana" font-size="12">updated_at</text>
</g>
</svg>
